<svg version="1" xmlns="http://www.w3.org/2000/svg" width="16" height="16" viewBox="0 0 16 16"><path fill="#bb0000" d="M13.445 3.766c0 .136-.053.255-.156.359l-3.875 3.875 3.875 3.906c.229.229.229.459 0 .688l-.688.719c-.25.229-.49.229-.719 0l-3.905-3.907-3.875 3.906c-.104.104-.224.156-.359.156-.135 0-.255-.052-.359-.156l-.688-.719c-.104-.104-.156-.219-.156-.344s.053-.239.156-.344l3.874-3.905-3.875-3.875c-.103-.104-.156-.224-.156-.359 0-.135.053-.255.156-.359l.688-.719c.25-.229.49-.229.719 0l3.875 3.906 3.906-3.906c.229-.229.469-.229.719 0l.688.719c.103.104.155.223.155.359z"/></svg>